<svg xmlns="http://www.w3.org/2000/svg" height="1200" width="1600" version="1.1" xmlns:xlink="http://www.w3.org/1999/xlink" xmlns:svgjs="http://svgjs.com/svgjs"><rect fill="#622ec2" width="1600" height="1200"></rect><g><path d="M329.4 932.43L1270.6 930.82" stroke="#333333" stroke-width="2" stroke-linecap="round" stroke-linejoin="round" opacity="1" fill="none"></path></g><g><path d="M1172.45 376.87V348.18C1172.45 342.76 1168.02 338.2 1162.48 338.2H905.74C900.32 338.2 895.77 342.64 895.77 348.18V509.36C895.77 514.78 900.2 519.34 905.74 519.34H1162.6C1168.02 519.34 1172.58 514.9 1172.58 509.36V429.57" fill="#e0e1ff" opacity="1" stroke-width="2" stroke="none"></path><path d="M1172.45 376.87V348.18C1172.45 342.76 1168.02 338.2 1162.48 338.2H905.74C900.32 338.2 895.77 342.64 895.77 348.18V509.36C895.77 514.78 900.2 519.34 905.74 519.34H1162.6C1168.02 519.34 1172.58 514.9 1172.58 509.36V429.57" stroke="#333333" stroke-width="2" stroke-linecap="round" stroke-linejoin="round" opacity="1" fill="none"></path><path d="M938.25 393.37C947.36 393.37 954.75 385.98 954.75 376.87 954.75 367.76 947.36 360.37 938.25 360.37 929.14 360.37 921.75 367.76 921.75 376.87 921.75 385.98 929.14 393.37 938.25 393.37Z" fill="#eeefff" stroke="#333333" stroke-width="2" stroke-linecap="round" stroke-linejoin="round" opacity="1"></path><path d="M980.98 393.37C990.09 393.37 997.48 385.98 997.48 376.87 997.48 367.76 990.09 360.37 980.98 360.37 971.87 360.37 964.48 367.76 964.48 376.87 964.48 385.98 971.87 393.37 980.98 393.37Z" fill="#6746cf" stroke="#333333" stroke-width="2" stroke-linecap="round" stroke-linejoin="round" opacity="1"></path><path d="M1019.64 414.55V429.57" stroke="#333333" stroke-width="2" stroke-linecap="round" stroke-linejoin="round" opacity="1" fill="none"></path><path d="M1033.43 414.55V429.57" stroke="#333333" stroke-width="2" stroke-linecap="round" stroke-linejoin="round" opacity="1" fill="none"></path><path d="M1047.35 414.55V429.57" stroke="#333333" stroke-width="2" stroke-linecap="round" stroke-linejoin="round" opacity="1" fill="none"></path><path d="M1070.99 414.55V429.57" stroke="#333333" stroke-width="2" stroke-linecap="round" stroke-linejoin="round" opacity="1" fill="none"></path><path d="M1084.78 414.55V429.57" stroke="#333333" stroke-width="2" stroke-linecap="round" stroke-linejoin="round" opacity="1" fill="none"></path><path d="M1098.57 414.55V429.57" stroke="#333333" stroke-width="2" stroke-linecap="round" stroke-linejoin="round" opacity="1" fill="none"></path><path d="M1122.21 414.55V429.57" stroke="#333333" stroke-width="2" stroke-linecap="round" stroke-linejoin="round" opacity="1" fill="none"></path><path d="M1136.13 414.55V429.57" stroke="#333333" stroke-width="2" stroke-linecap="round" stroke-linejoin="round" opacity="1" fill="none"></path><path d="M1149.92 414.55V429.57" stroke="#333333" stroke-width="2" stroke-linecap="round" stroke-linejoin="round" opacity="1" fill="none"></path><path d="M1172.45 414.55V391.89" stroke="#333333" stroke-width="2" stroke-linecap="round" stroke-linejoin="round" opacity="1" fill="none"></path><path d="M1239.56 561.94V519.34 519.21L1210.01 499.63C1210.01 499.63 1210.01 499.63 1210.01 499.51 1210.01 499.39 1210.01 499.39 1210.01 499.39L1239.56 479.81C1239.56 479.81 1239.56 479.81 1239.56 479.69V459.98C1239.56 454.57 1235.13 450.01 1229.59 450.01H972.73C967.31 450.01 962.75 454.44 962.75 459.98V479.69 479.81L993.29 499.39V499.51 499.63L962.75 519.21V519.34 621.17C962.75 626.59 967.19 631.14 972.73 631.14H1229.59C1235.01 631.14 1239.56 626.71 1239.56 621.17V576.84" fill="#e0e1ff" opacity="1" stroke-width="2" stroke="none"></path><path d="M1239.56 561.94V519.34 519.21L1210.01 499.63C1210.01 499.63 1210.01 499.63 1210.01 499.51 1210.01 499.39 1210.01 499.39 1210.01 499.39L1239.56 479.81C1239.56 479.81 1239.56 479.81 1239.56 479.69V459.98C1239.56 454.57 1235.13 450.01 1229.59 450.01H972.73C967.31 450.01 962.75 454.44 962.75 459.98V479.69 479.81L993.29 499.39V499.51 499.63L962.75 519.21V519.34 621.17C962.75 626.59 967.19 631.14 972.73 631.14H1229.59C1235.01 631.14 1239.56 626.71 1239.56 621.17V576.84" stroke="#333333" stroke-width="2" stroke-linecap="round" stroke-linejoin="round" opacity="1" fill="none"></path><path d="M962.88 479.93C962.88 479.81 962.88 479.81 963 479.81H1239.44C1239.56 479.81 1239.56 479.81 1239.56 479.93V519.09C1239.56 519.21 1239.56 519.21 1239.44 519.21H963C962.88 519.21 962.88 519.21 962.88 519.09V479.93Z" fill="#abaded" stroke="#333333" stroke-width="2" stroke-linecap="round" stroke-linejoin="round" opacity="1"></path></g><g><path d="M596.67 492.72C659.86 492.72 711.07 441.51 711.07 378.32 711.07 315.14 659.86 263.92 596.67 263.92 533.48 263.92 482.27 315.14 482.27 378.32 482.27 441.51 533.48 492.72 596.67 492.72Z" fill="#eeefff" stroke="#333333" stroke-width="2" stroke-linecap="round" stroke-linejoin="round" opacity="1"></path><path d="M543.32 373.5L581.98 412.28 650.14 344.12" stroke="#333333" stroke-width="2" stroke-linecap="round" stroke-linejoin="round" opacity="1" fill="none"></path><path d="M669.53 565.46C629.43 565.46 596.79 532.82 596.79 492.72" stroke="#333333" stroke-width="2" stroke-linecap="round" stroke-linejoin="round" opacity="1" fill="none"></path></g><g><path d="M1189.96 918.97H1075.27C1071.91 918.97 1069.16 921.71 1069.16 925.07 1069.16 928.43 1071.91 931.18 1075.27 931.18H1189.96C1193.32 931.18 1196.07 928.43 1196.07 925.07 1196.07 921.71 1193.32 918.97 1189.96 918.97Z" fill="#e0e1ff" stroke="#333333" stroke-width="2" stroke-linecap="round" stroke-linejoin="round" opacity="1"></path><path d="M1141.4 918.81H1123.83C1106.88 918.81 1093.14 905.07 1093.14 888.11V819.54H1171.94V888.11C1172.1 905.07 1158.35 918.81 1141.4 918.81Z" fill="#e0e1ff" stroke="#333333" stroke-width="2" stroke-linecap="round" stroke-linejoin="round" opacity="1"></path><path d="M1184.16 879.56C1177.59 879.56 1172.1 874.22 1172.1 867.5V819.54H1196.07V867.5C1196.07 874.22 1190.73 879.56 1184.16 879.56Z" stroke="#333333" stroke-width="2" stroke-linecap="round" stroke-linejoin="round" opacity="1" fill="none"></path></g><g><path d="M688.19 547.67H682.74C596.99 547.67 527.96 617.06 527.96 702.45V880.48C527.96 908.82 550.48 931.35 578.82 931.35H1022.09C1050.79 931.35 1074.04 908.09 1074.04 879.75V701.36C1074.04 616.34 1005.01 547.3 919.99 547.3H913.45" fill="#ffffff" opacity="1" stroke-width="2" stroke="none"></path><path d="M688.19 547.67H682.74C596.99 547.67 527.96 617.06 527.96 702.45V880.48C527.96 908.82 550.48 931.35 578.82 931.35H1022.09C1050.79 931.35 1074.04 908.09 1074.04 879.75V701.36C1074.04 616.34 1005.01 547.3 919.99 547.3H913.45" stroke="#333333" stroke-width="2" stroke-linecap="round" stroke-linejoin="round" opacity="1" fill="none"></path><path d="M635.5 730.79V672.29" stroke="#333333" stroke-width="2" stroke-linecap="round" stroke-linejoin="round" opacity="1" fill="none"></path><path d="M966.5 730.79V672.29" stroke="#333333" stroke-width="2" stroke-linecap="round" stroke-linejoin="round" opacity="1" fill="none"></path><path d="M885.47 565.11L890.2 525.87 797.19 514.61 704.9 524.78 713.26 564.74C713.26 578.91 704.17 590.9 691.46 595.26 704.54 643.95 749.23 679.19 801.54 679.19 853.86 679.19 897.83 644.31 911.27 595.99 896.37 593.45 885.47 580.37 885.47 565.11Z" fill="#ffffff" stroke="#333333" stroke-width="2" stroke-linecap="round" stroke-linejoin="round" opacity="1"></path><path d="M909.82 530.95C875.66 425.59 726.34 425.59 692.55 530.95 685.64 551.3 685.28 574.92 691.09 595.26 703.81 590.9 712.89 578.91 712.89 564.74V530.59H885.47V564.74C885.47 580 896.37 593.45 910.91 596.72 916.72 575.64 916.36 551.3 909.82 530.95Z" fill="#46486d" stroke="#333333" stroke-width="2" stroke-linecap="round" stroke-linejoin="round" opacity="1"></path><path d="M777.57 568.74V617.79" stroke="#333333" stroke-width="2" stroke-linecap="round" stroke-linejoin="round" opacity="1" fill="none"></path><path d="M808.45 617.79C808.45 626.51 801.54 633.05 792.83 633.05 784.11 633.05 777.57 626.15 777.57 617.79" stroke="#333333" stroke-width="2" stroke-linecap="round" stroke-linejoin="round" opacity="1" fill="none"></path><path d="M635.5 672.29V816.9H966.5V672.29" stroke="#333333" stroke-width="2" stroke-linecap="round" stroke-linejoin="round" opacity="1" fill="none"></path><path d="M792.83 816.9V931.35" stroke="#333333" stroke-width="2" stroke-linecap="round" stroke-linejoin="round" opacity="1" fill="none"></path><path d="M972.67 932.07H628.96L588.27 730.79H1013.73L972.67 932.07Z" fill="#abaded" stroke="#333333" stroke-width="2" stroke-linecap="round" stroke-linejoin="round" opacity="1"></path><path d="M801.18 862.31C818.44 862.31 832.43 848.33 832.43 831.07 832.43 813.81 818.44 799.82 801.18 799.82 783.92 799.82 769.94 813.81 769.94 831.07 769.94 848.33 783.92 862.31 801.18 862.31Z" fill="#eeefff" stroke="#333333" stroke-width="2" stroke-linecap="round" stroke-linejoin="round" opacity="1"></path></g></svg>