<svg xmlns="http://www.w3.org/2000/svg" height="1200" width="1600" version="1.1" xmlns:xlink="http://www.w3.org/1999/xlink" xmlns:svgjs="http://svgjs.com/svgjs"><rect fill="#f2f2f2" width="1600" height="1200"></rect><g><path d="M136.86 969.06L1463.14 968.05" stroke="#333333" stroke-width="2" stroke-linecap="round" stroke-linejoin="round" opacity="1" fill="none"></path></g><g><path d="M702.23 321.7H611.72 611.6L588.64 297.07V296.95L611.6 272.2C611.6 272.2 611.6 272.2 611.72 272.2H702.23C702.35 272.2 702.35 272.2 702.35 272.32V321.58C702.35 321.7 702.35 321.7 702.23 321.7Z" fill="#5e54c9" stroke="#333333" stroke-width="2" stroke-linecap="round" stroke-linejoin="round" opacity="1"></path><path d="M670.67 283.44L643.53 310.34" stroke="#333333" stroke-width="2" stroke-linecap="round" stroke-linejoin="round" opacity="1" fill="none"></path><path d="M648.07 292.53C650.58 292.53 652.61 290.49 652.61 287.98 652.61 285.47 650.58 283.44 648.07 283.44 645.56 283.44 643.53 285.47 643.53 287.98 643.53 290.49 645.56 292.53 648.07 292.53Z" stroke="#333333" stroke-width="2" stroke-linecap="round" stroke-linejoin="round" opacity="1" fill="none"></path><path d="M666.12 310.34C668.63 310.34 670.67 308.31 670.67 305.8 670.67 303.29 668.63 301.25 666.12 301.25 663.61 301.25 661.58 303.29 661.58 305.8 661.58 308.31 663.61 310.34 666.12 310.34Z" stroke="#333333" stroke-width="2" stroke-linecap="round" stroke-linejoin="round" opacity="1" fill="none"></path></g><g><path d="M1160.11 845.03H1197.14L1252.68 875.25 1301.89 845.03H1338.91V969.37H1160.11V845.03Z" fill="#5e54c9" stroke="#333333" stroke-width="2" stroke-linecap="round" stroke-linejoin="round" opacity="1"></path><path d="M1280.27 896.27H1218.64C1206.69 896.27 1197.14 886.6 1197.14 874.77V845.03H1301.89V874.77C1301.89 886.72 1292.21 896.27 1280.27 896.27Z" fill="#b9abed" stroke="#333333" stroke-width="2" stroke-linecap="round" stroke-linejoin="round" opacity="1"></path><path d="M1233.33 875.25H1265.7" stroke="#333333" stroke-width="2" stroke-linecap="round" stroke-linejoin="round" opacity="1" fill="none"></path><path d="M1264.86 805.74H1234.16C1224.73 805.74 1217.2 813.38 1217.2 822.7V845.03H1281.94V822.7C1281.82 813.38 1274.18 805.74 1264.86 805.74Z" stroke="#333333" stroke-width="2" stroke-linecap="round" stroke-linejoin="round" opacity="1" fill="none"></path></g><g><path d="M1238.97 376.57L1250.24 348.24 1010.69 253.07 962.46 374.41 1202.02 469.59 1235.34 385.69" fill="#5e54c9" opacity="1" stroke-width="2" stroke="none"></path><path d="M1238.97 376.57L1250.24 348.24 1010.69 253.07 962.46 374.41 1202.02 469.59 1235.34 385.69" stroke="#333333" stroke-width="2" stroke-linecap="round" stroke-linejoin="round" opacity="1" fill="none"></path><path d="M1191.34 445.45L986.4 364.02 1020.85 277.31 1225.8 358.73 1191.34 445.45Z" stroke="#333333" stroke-width="2" stroke-linecap="round" stroke-linejoin="round" opacity="1" fill="none"></path><path d="M1126.74 403.33C1136.84 398.43 1145.26 389.9 1149.68 378.63 1159.18 354.71 1147.52 327.56 1123.5 318.05 1099.49 308.55 1072.44 320.21 1062.93 344.22 1053.42 368.14 1065.09 395.29 1089.1 404.8 1097.73 408.23 1106.74 408.92 1115.27 407.25" stroke="#333333" stroke-width="2" stroke-linecap="round" stroke-linejoin="round" opacity="1" fill="none"></path><path d="M1230.83 351.77L1238.19 307.86C1238.19 307.76 1238.19 307.76 1238.09 307.76L984.12 265.03C984.03 265.03 984.03 265.03 984.03 265.12L962.36 393.63C962.36 393.72 962.36 393.72 962.46 393.72L1216.43 436.56C1216.52 436.56 1216.52 436.56 1216.52 436.46L1229.56 359.22" fill="#b9abed" opacity="1" stroke-width="2" stroke="none"></path><path d="M1230.83 351.77L1238.19 307.86C1238.19 307.76 1238.19 307.76 1238.09 307.76L984.12 265.03C984.03 265.03 984.03 265.03 984.03 265.12L962.36 393.63C962.36 393.72 962.36 393.72 962.46 393.72L1216.43 436.56C1216.52 436.56 1216.52 436.56 1216.52 436.46L1229.56 359.22" stroke="#333333" stroke-width="2" stroke-linecap="round" stroke-linejoin="round" opacity="1" fill="none"></path><path d="M1201.24 415.12L983.77 378.51 999.26 286.49 1216.73 323.1 1201.24 415.12Z" stroke="#333333" stroke-width="2" stroke-linecap="round" stroke-linejoin="round" opacity="1" fill="none"></path><path d="M1128.99 387.55C1137.82 380.59 1144.28 370.49 1146.24 358.53 1150.56 333.15 1133.4 309.04 1108.02 304.72 1082.63 300.41 1058.52 317.56 1054.21 342.95 1049.89 368.34 1067.05 392.45 1092.43 396.76 1101.55 398.33 1110.57 397.06 1118.51 393.63" stroke="#333333" stroke-width="2" stroke-linecap="round" stroke-linejoin="round" opacity="1" fill="none"></path></g><g><path d="M468.35 493.13V599.81C468.35 599.9 468.35 599.9 468.26 599.9H208.54C208.45 599.9 208.45 599.9 208.45 599.81V304.89C208.45 304.8 208.45 304.8 208.54 304.8H468.26C468.35 304.8 468.35 304.8 468.35 304.89V474.41" fill="#e0e1ff" opacity="1" stroke-width="2" stroke="none"></path><path d="M468.35 493.13V599.81C468.35 599.9 468.35 599.9 468.26 599.9H208.54C208.45 599.9 208.45 599.9 208.45 599.81V304.89C208.45 304.8 208.45 304.8 208.54 304.8H468.26C468.35 304.8 468.35 304.8 468.35 304.89V474.41" stroke="#333333" stroke-width="2" stroke-linecap="round" stroke-linejoin="round" opacity="1" fill="none"></path><path d="M360.59 469.81L348.26 488.72C348.26 488.72 348.17 488.81 348.17 488.72L306.4 461.53 264.45 525.9V525.99L281.82 538.59C281.82 538.59 281.82 538.59 281.91 538.59H282L312.7 491.6C312.7 491.6 312.7 491.6 312.79 491.6H312.88L354.56 518.79 396.51 454.51C396.51 454.51 396.6 454.42 396.6 454.51L412.36 464.77H412.45V464.68L403.89 423.54C403.89 423.45 403.8 423.45 403.8 423.45L362.57 432C362.57 432 362.48 432 362.48 432.09 362.48 432.18 362.48 432.18 362.48 432.18L378.24 442.54C378.24 442.54 378.33 442.63 378.24 442.63L363.92 464.59" fill="#b9abed" opacity="1" stroke-width="2" stroke="none"></path><path d="M360.59 469.81L348.26 488.72C348.26 488.72 348.17 488.81 348.17 488.72L306.4 461.53 264.45 525.9V525.99L281.82 538.59C281.82 538.59 281.82 538.59 281.91 538.59H282L312.7 491.6C312.7 491.6 312.7 491.6 312.79 491.6H312.88L354.56 518.79 396.51 454.51C396.51 454.51 396.6 454.42 396.6 454.51L412.36 464.77H412.45V464.68L403.89 423.54C403.89 423.45 403.8 423.45 403.8 423.45L362.57 432C362.57 432 362.48 432 362.48 432.09 362.48 432.18 362.48 432.18 362.48 432.18L378.24 442.54C378.24 442.54 378.33 442.63 378.24 442.63L363.92 464.59" stroke="#333333" stroke-width="2" stroke-linecap="round" stroke-linejoin="round" opacity="1" fill="none"></path><path d="M264.27 366.02V395.72" stroke="#333333" stroke-width="2" stroke-linecap="round" stroke-linejoin="round" opacity="1" fill="none"></path><path d="M288.93 366.02V395.72" stroke="#333333" stroke-width="2" stroke-linecap="round" stroke-linejoin="round" opacity="1" fill="none"></path><path d="M313.69 366.02V395.72" stroke="#333333" stroke-width="2" stroke-linecap="round" stroke-linejoin="round" opacity="1" fill="none"></path><path d="M363.11 366.02V395.72" stroke="#333333" stroke-width="2" stroke-linecap="round" stroke-linejoin="round" opacity="1" fill="none"></path><path d="M412.45 366.02V395.72" stroke="#333333" stroke-width="2" stroke-linecap="round" stroke-linejoin="round" opacity="1" fill="none"></path><path d="M264.27 380.87H412.45" stroke="#333333" stroke-width="2" stroke-linecap="round" stroke-linejoin="round" opacity="1" fill="none"></path></g><g><path d="M938.5 758.6H879.8L919.2 851C924.5 863.3 915.4 877 902 877 894.5 877 887.8 872.5 884.8 865.7L839.1 758.7H780.4L864.6 955.9H871.6 923.3 963.9 975.1 1022.6L938.5 758.6Z" fill="#eeefff" stroke="#333333" stroke-width="2" stroke-linecap="round" stroke-linejoin="round" opacity="1"></path><path d="M1123.9 763.8C1123.9 770.4 1118.5 775.8 1111.9 775.8H593C586.4 775.8 581 770.4 581 763.8V726.1C618.1 607.2 616 519.7 581 394.6V360C581 353.4 586.4 348 593 348H1111.9C1118.5 348 1123.9 353.4 1123.9 360V394.6C1109.7 512.5 1102.5 585.4 1123.9 726.1V763.8Z" fill="#eeefff" stroke="#333333" stroke-width="2" stroke-linecap="round" stroke-linejoin="round" opacity="1"></path><path d="M852.5 376.7C855.48 376.7 857.9 374.28 857.9 371.3 857.9 368.32 855.48 365.9 852.5 365.9 849.52 365.9 847.1 368.32 847.1 371.3 847.1 374.28 849.52 376.7 852.5 376.7Z" fill="#5e54c9" stroke="#333333" stroke-width="2" stroke-linecap="round" stroke-linejoin="round" opacity="1"></path><path d="M1029.4 944.6H675.4C671.6 944.6 668.5 947.7 668.5 951.5V969H1036.3V951.6C1036.4 947.7 1033.3 944.6 1029.4 944.6Z" fill="#eeefff" stroke="#333333" stroke-width="2" stroke-linecap="round" stroke-linejoin="round" opacity="1"></path><path d="M1123.9 394.6H581V726.1H1123.9V394.6Z" fill="#e0e1ff" stroke="#333333" stroke-width="2" stroke-linecap="round" stroke-linejoin="round" opacity="1"></path></g><g><path d="M854.84 670.43C915.03 670.43 963.83 621.63 963.83 561.44 963.83 501.23 915.03 452.45 854.84 452.45 794.64 452.45 745.86 501.23 745.86 561.44 745.86 621.63 794.64 670.43 854.84 670.43Z" fill="#5e54c9" stroke="#333333" stroke-width="2" stroke-linecap="round" stroke-linejoin="round" opacity="1"></path><path d="M854.84 670.43V452.45" stroke="#333333" stroke-width="2" stroke-linecap="round" stroke-linejoin="round" opacity="1" fill="none"></path><path d="M886.81 457.25C903.96 478.9 915.44 517.26 915.44 561.44 915.44 605.61 903.96 643.98 886.81 665.63" stroke="#333333" stroke-width="2" stroke-linecap="round" stroke-linejoin="round" opacity="1" fill="none"></path><path d="M822.73 665.63C805.58 643.98 794.1 605.61 794.1 561.44 794.1 517.26 805.58 478.9 822.73 457.25" stroke="#333333" stroke-width="2" stroke-linecap="round" stroke-linejoin="round" opacity="1" fill="none"></path><path d="M930.7 483.4C915.01 500.41 886.81 511.6 854.7 511.6 822.58 511.6 794.39 500.41 778.7 483.4" stroke="#333333" stroke-width="2" stroke-linecap="round" stroke-linejoin="round" opacity="1" fill="none"></path><path d="M778.84 639.47C794.54 622.47 822.73 611.28 854.84 611.28 880.57 611.28 903.53 618.55 919.66 630.03 923.87 633.08 927.36 636.28 930.55 639.47" stroke="#333333" stroke-width="2" stroke-linecap="round" stroke-linejoin="round" opacity="1" fill="none"></path><path d="M784.37 561.44H963.54" stroke="#333333" stroke-width="2" stroke-linecap="round" stroke-linejoin="round" opacity="1" fill="none"></path><path d="M745.86 561.44H768.53" stroke="#333333" stroke-width="2" stroke-linecap="round" stroke-linejoin="round" opacity="1" fill="none"></path><path d="M942.62 550.25C930.85 568.27 915.88 586.72 898 604.6 838.86 663.74 771.58 692.37 747.6 668.39 734.38 655.17 737.14 629.01 752.11 598.35" stroke="#333333" stroke-width="2" stroke-linecap="round" stroke-linejoin="round" opacity="1" fill="none"></path><path d="M968.48 465.97C973.71 483.11 966.45 509.42 950.03 538.33" stroke="#333333" stroke-width="2" stroke-linecap="round" stroke-linejoin="round" opacity="1" fill="none"></path><path d="M891.76 458.99C922.42 444.02 948.86 441.26 961.8 454.49" stroke="#333333" stroke-width="2" stroke-linecap="round" stroke-linejoin="round" opacity="1" fill="none"></path></g><g><path d="M394.99 464.05C362.7 478.58 340.13 511.04 340.13 548.91V634.45C340.13 666.4 366 692.26 397.95 692.26V645.61L477.06 665.13 556.18 645.61V692.26C588.13 692.26 613.99 666.4 613.99 634.45V548.83C613.99 497.43 572.41 455.93 521.1 455.93H432.86C423.47 455.93 414.43 457.28 405.98 459.82" fill="#ffffff" opacity="1" stroke-width="2" stroke="none"></path><path d="M394.99 464.05C362.7 478.58 340.13 511.04 340.13 548.91V634.45C340.13 666.4 366 692.26 397.95 692.26V645.61L477.06 665.13 556.18 645.61V692.26C588.13 692.26 613.99 666.4 613.99 634.45V548.83C613.99 497.43 572.41 455.93 521.1 455.93H432.86C423.47 455.93 414.43 457.28 405.98 459.82" stroke="#333333" stroke-width="2" stroke-linecap="round" stroke-linejoin="round" opacity="1" fill="none"></path><path d="M556.09 567V553.05" stroke="#333333" stroke-width="2" stroke-linecap="round" stroke-linejoin="round" opacity="1" fill="none"></path><path d="M556.09 645.61V579.25" stroke="#333333" stroke-width="2" stroke-linecap="round" stroke-linejoin="round" opacity="1" fill="none"></path><path d="M397.86 645.61V553.05" stroke="#333333" stroke-width="2" stroke-linecap="round" stroke-linejoin="round" opacity="1" fill="none"></path><path d="M556.09 645.61H397.86V969H556.09V645.61Z" fill="#46476d" stroke="#333333" stroke-width="2" stroke-linecap="round" stroke-linejoin="round" opacity="1"></path><path d="M476.98 955.05V722.44" stroke="#333333" stroke-width="2" stroke-linecap="round" stroke-linejoin="round" opacity="1" fill="none"></path><path d="M476.98 712.13V689.81" stroke="#333333" stroke-width="2" stroke-linecap="round" stroke-linejoin="round" opacity="1" fill="none"></path><path d="M508.42 450.44L510.03 427.36 476.3 423.47 444.94 427.11 445.45 450.44C445.45 454.83 442.41 458.55 438.27 459.4 443.59 475.63 458.81 487.46 476.98 487.46 495.15 487.46 510.28 475.63 515.69 459.4 511.47 458.55 508.42 454.92 508.42 450.44Z" fill="#ffffff" stroke="#333333" stroke-width="2" stroke-linecap="round" stroke-linejoin="round" opacity="1"></path><path d="M482.47 439.53V457.03" stroke="#333333" stroke-width="2" stroke-linecap="round" stroke-linejoin="round" opacity="1" fill="none"></path><path d="M471.57 457.03C471.57 460.07 473.94 462.44 476.98 462.44 480.02 462.44 482.39 460.07 482.39 457.03" stroke="#333333" stroke-width="2" stroke-linecap="round" stroke-linejoin="round" opacity="1" fill="none"></path><path d="M513.75 429.56C507.15 415.78 493.21 406.4 476.98 406.4 460.75 406.4 446.8 415.87 440.3 429.56 437.76 434.88 436.41 440.72 436.41 446.97 436.41 451.37 437.17 455.59 438.44 459.48 442.49 458.64 445.62 454.92 445.62 450.52V429.56H508.34V430.91 450.44C508.34 454.83 511.38 458.55 515.61 459.4 516.87 455.51 517.64 451.11 517.64 446.89 517.72 440.72 516.28 434.88 513.75 429.56Z" fill="#46476d" stroke="#333333" stroke-width="2" stroke-linecap="round" stroke-linejoin="round" opacity="1"></path></g></svg>